# xmcd
#
# Track frame offsets: 
#        151
#        19429
#        40100
#        56863
#        75537
#
# Disc length: 1237 seconds
#
# Revision: 0
# Processed by: cddbd v1.5.1PL0 Copyright (c) Steve Scherf et al.
# Submitted via: ExactAudioCopy v0.95a5
#
DISCID=3a04d305
DTITLE=Baggefudda EP - Baggefudda Darmstadt
DYEAR=2002
DGENRE=Rap
TTITLE0=Baggefudda Darmstadt (Posse Track feat. Manges)
TTITLE1=Mad-O-Mad
TTITLE2=Kann net anders
TTITLE3=Dreckisch
TTITLE4=In De Arsch Gebuit
EXTD=
EXTT0=
EXTT1=
EXTT2=
EXTT3=
EXTT4=
PLAYORDER=
